# xmcd
#
# Track frame offsets:
#	150
#	17771
#	37837
#	59373
#	72703
#	86500
#	99657
#	114436
#	128214
#	146437
#	160074
#	173120
#	187669
#	199620
#	212832
#	227211
#	241004
#	256807
#	271482
#	284446
#
# Disc length: 3982 seconds
#
# Revision: 0
# Processed by: cddbd v1.5.2PL0 Copyright (c) Steve Scherf et al.
# Submitted via: dBpowerAMP V4.0
#
DISCID=160f8c14
DTITLE=Alan Ladd - van Oud tot Goud
DYEAR=1900
DGENRE=Country
TTITLE0=Grandpa
TTITLE1=Going where the lonely go
TTITLE2=Coward of the country
TTITLE3=Help me make it through the night
TTITLE4=Detroit
TTITLE5=Crystal Chandeliers
TTITLE6=Fool on the hill
TTITLE7=Cool waters
TTITLE8=Me and Bobby McGee
TTITLE9=On the other hand
TTITLE10=Kiss and angel good morning
TTITLE11=You were there
TTITLE12=Ring of fire
TTITLE13=Green grass of home
TTITLE14=Saganaw Michigan
TTITLE15=Woman Sensuous woman
TTITLE16=On your way out
TTITLE17=500 Miles away from home
TTITLE18=Nothing turns into everything
TTITLE19=King of the road
EXTD=
EXTT0=
EXTT1=
EXTT2=
EXTT3=
EXTT4=
EXTT5=
EXTT6=
EXTT7=
EXTT8=
EXTT9=
EXTT10=
EXTT11=
EXTT12=
EXTT13=
EXTT14=
EXTT15=
EXTT16=
EXTT17=
EXTT18=
EXTT19=
PLAYORDER=
